<?xml version="1.0" encoding="utf-8"?>
<!-- Generator: Adobe Illustrator 10.0, SVG Export Plug-In . SVG Version: 3.0.0 Build 76)  -->
<!DOCTYPE svg PUBLIC "-//W3C//DTD SVG 1.0//EN"    "http://www.w3.org/TR/2001/REC-SVG-20010904/DTD/svg10.dtd" [
	<!ENTITY ns_flows "http://ns.adobe.com/Flows/1.0/">
	<!ENTITY ns_extend "http://ns.adobe.com/Extensibility/1.0/">
	<!ENTITY ns_ai "http://ns.adobe.com/AdobeIllustrator/10.0/">
	<!ENTITY ns_svg "http://www.w3.org/2000/svg">
	<!ENTITY ns_xlink "http://www.w3.org/1999/xlink">
]>
<svg  xmlns:x="&ns_extend;" xmlns:i="&ns_ai;" xmlns:graph="&ns_graphs;"
	 xmlns="&ns_svg;" xmlns:xlink="&ns_xlink;" xmlns:a="http://ns.adobe.com/AdobeSVGViewerExtensions/3.0/" width="196" height="98"
	 viewBox="0.433 -0.036 196 98" overflow="visible" enable-background="new 0.433 -0.036 196 98" xml:space="preserve">
	<g id="Layer_1_2_">
		<g>
			<path fill="none" stroke="#000000" d="M0.053,42.844h196.406"/>
			<path fill="none" stroke="#000000" d="M0.053,57.956h196.406"/>
			<path fill="none" stroke="#000000" d="M0.15,65.079h196.407"/>
			<path fill="none" stroke="#000000" d="M0,72.461h196.407"/>
			<path fill="none" stroke="#000000" d="M0,50.098h196.407"/>
		</g>
		<g>
			<path d="M120.896,24.131c2.664,0.024,5.184,1.032,5.376,3.264c0.144,1.632-2.016,3.12-4.68,3.12
				c-2.688-0.024-5.184-1.008-5.4-3.24C116.047,25.619,118.231,24.131,120.896,24.131z M121.543,29.963
				c1.152,0,1.896-1.104,1.776-1.992c-0.264-1.752-0.864-3.168-2.448-3.168c-1.152,0-1.824,1.128-1.68,2.016
				C119.456,28.571,119.959,29.963,121.543,29.963z"/>
		</g>
		<path fill="none" stroke="#000000" d="M46.433,82.964h12"/>
		<g>
			<path d="M52.826,86.554c2.664,0.024,5.184,1.032,5.376,3.264c0.144,1.632-2.016,3.12-4.68,3.12
				c-2.688-0.024-5.184-1.008-5.4-3.24C47.978,88.042,50.162,86.554,52.826,86.554z M53.474,92.386c1.152,0,1.896-1.104,1.776-1.992
				c-0.264-1.752-0.864-3.168-2.448-3.168c-1.152,0-1.824,1.128-1.68,2.016C51.386,90.994,51.89,92.386,53.474,92.386z"/>
		</g>
		<path fill="none" stroke="#000000" stroke-width="2" d="M63.132,81.575l46.301-45.61"/>
		<path fill="none" stroke="#000000" d="M46.352,77.115h12"/>
		<g>
			<path d="M10.81,72.015c-4.944-2.352-5.736-5.376-5.952-8.472c-0.24-3.36,1.896-6.768,3.888-8.664
				c1.152-1.08,2.4-2.136,3.888-3.264c-0.048-0.84-0.24-1.176-0.336-2.376c-0.024-0.504-0.336-2.856,0.168-5.568
				c0.312-1.608,2.328-5.4,3.72-5.424c1.08-0.024,2.736,4.296,2.784,6.456c0.072,3.336-0.72,4.848-1.704,6.576
				c-0.504,0.864-1.032,1.464-1.584,2.136c-0.576,0.696-1.224,1.104-1.824,1.632c0,0,0.768,4.344,0.792,4.656
				c1.536-0.192,3.408,0.36,4.08,0.84c1.704,1.272,2.352,3.024,2.472,4.728c0.216,2.712-1.272,5.568-4.56,6.936
				c0,0,0.504,3.456,0.624,4.176c0.264,1.896,0.216,3.096-0.192,3.864c-0.696,1.296-1.824,2.496-4.008,2.64
				c-1.68,0.096-4.992-0.744-5.16-3.384c-0.096-1.56,0.6-3.24,2.496-3.36c1.152-0.096,2.52,0.864,2.616,2.232
				c0.096,1.176-0.672,2.4-2.664,2.952c0.312,0.432,1.248,0.936,2.592,0.936c1.392,0,2.832-0.936,3.528-2.184
				c0.432-0.816,0.384-2.28,0.216-3.624c-0.072-0.456-0.648-4.08-0.648-4.08C14.266,72.663,11.817,72.495,10.81,72.015z
				 M11.29,66.327c0.048,1.152,1.008,2.496,1.896,2.952c-0.12,0.072-0.24,0.264-0.24,0.264c-0.984-0.48-1.824-1.272-2.04-1.56
				c-0.696-0.936-0.984-1.464-1.08-2.88c-0.096-1.32,0.624-3.096,2.232-4.344c0.84-0.624,1.248-0.768,1.968-0.936l-0.72-4.344
				c-0.744,0.432-3.816,2.904-5.112,4.92c-1.152,1.8-1.848,3.24-1.704,5.016c0.288,4.008,4.68,7.296,9.432,6.168
				c0,0-1.416-8.52-1.392-8.52C11.914,63.159,11.217,65.175,11.29,66.327z M13.233,51.11c2.088-1.632,4.92-4.704,4.752-7.08
				c-0.048-0.744-0.36-2.088-1.44-2.064C14.074,41.991,12.682,47.15,13.233,51.11z M16.498,71.391
				c2.76-0.936,2.88-3.312,2.784-4.728c-0.096-1.176-0.624-3.816-4.128-3.648L16.498,71.391z"/>
		</g>
		<path fill="none" stroke="#000000" d="M115.767,36.297h12"/>
		<path fill="none" stroke="#000000" d="M115.433,30.964h12"/>
		<g>
			<path fill="none" stroke="#000000" d="M152.806,0.5l-22.851,20.31"/>
			<path fill="none" stroke="#000000" d="M143.187,0.871l9.619-0.372"/>
			<path fill="none" stroke="#000000" d="M150.691,10.558L152.806,0.5"/>
		</g>
		<g>
			<path d="M39.465,86.22v-3.912h0.696v3.672l2.352-0.768v-3.504h0.696v3.288l0.936-0.312v2.496l-0.936,0.312v3.552l0.936-0.288
				v2.472l-0.936,0.312v3.912h-0.696v-3.696l-2.352,0.768v3.552h-0.696v-3.312l-1.032,0.336v-2.496l1.032-0.336v-3.576l-1.032,0.336
				v-2.472L39.465,86.22z M40.161,88.477v3.576l2.352-0.768v-3.576L40.161,88.477z"/>
		</g>
		<path fill="none" stroke="#000000" d="M47.352,90.115h12"/>
	</g>
</svg>
